SplineFontDB: 3.0
FontName: Edufun
FullName: Edufun
FamilyName: Edufun
Weight: Regular
Copyright: Copyright (c) 2019, Yuriy Zhdanov
UComments: "2019-5-17: Created with FontForge (http://fontforge.org)"
Version: 001.000
ItalicAngle: 0
UnderlinePosition: 0
UnderlineWidth: 0
Ascent: 800
Descent: 200
InvalidEm: 0
LayerCount: 2
Layer: 0 0 "Back" 1
Layer: 1 0 "Fore" 0
XUID: [1021 606 -1263197008 3530328]
StyleMap: 0x0000
FSType: 0
OS2Version: 0
OS2_WeightWidthSlopeOnly: 0
OS2_UseTypoMetrics: 1
CreationTime: 1558080754
ModificationTime: 1561427787
OS2TypoAscent: 0
OS2TypoAOffset: 1
OS2TypoDescent: 0
OS2TypoDOffset: 1
OS2TypoLinegap: 90
OS2WinAscent: 0
OS2WinAOffset: 1
OS2WinDescent: 0
OS2WinDOffset: 1
HheadAscent: 0
HheadAOffset: 1
HheadDescent: 0
HheadDOffset: 1
MarkAttachClasses: 1
DEI: 91125
Encoding: Custom
UnicodeInterp: none
NameList: AGL For New Fonts
DisplaySize: -48
AntiAlias: 1
FitToEm: 0
WinInfo: 0 18 7
BeginPrivate: 0
EndPrivate
Grid
-1000 700 m 0
 2000 700 l 1024
  Named: "700"
-820.03125 1300 m 0
 -820.03125 -700 l 1024
EndSplineSet
BeginChars: 32 33

StartChar: B
Encoding: 1 66 1
Width: 555
VWidth: 0
Flags: W
VStem: -49.0325 128<352 681> -39.0325 134<-45 199>
LayerCount: 2
Fore
SplineSet
73.35546875 36.0185546875 m 5x80
 61.216796875 105.377929688 55.1474609375 152.196289062 57.748046875 210.28515625 c 4x40
 59.482421875 358.541992188 52.546875 411.4296875 50.8125 545.814453125 c 5
 55.1474609375 566.622070312 43.009765625 610.838867188 56.8818359375 633.380859375 c 4
 62.0830078125 645.51953125 79.423828125 673.263671875 82.025390625 670.661132812 c 5
 162.65625 696.671875 337.790039062 714.01171875 388.076171875 654.189453125 c 5
 429.69140625 622.110351562 456.568359375 590.8984375 466.106445312 563.154296875 c 5
 474.776367188 517.203125 473.041992188 496.39453125 461.771484375 457.379882812 c 5
 440.962890625 424.434570312 427.090820312 395.823242188 387.208007812 369.813476562 c 4
 382.873046875 367.211914062 374.203125 360.275390625 367.267578125 355.07421875 c 4
 360.33203125 349.872070312 355.997070312 339.46875 355.997070312 336.866210938 c 4
 427.090820312 313.458007812 506.85546875 256.235351562 505.12109375 175.60546875 c 5
 510.322265625 143.525390625 491.248046875 98.44140625 473.041992188 77.6337890625 c 5
 447.032226562 54.224609375 413.21875 34.2841796875 390.676757812 23.013671875 c 5
 351.662109375 14.34375 311.780273438 3.0712890625 278.833007812 1.3388671875 c 4
 186.065429688 1.3388671875 147.049804688 3.0712890625 73.35546875 36.0185546875 c 5x80
320.450195312 98.44140625 m 4
 443.563476562 112.314453125 436.627929688 179.940429688 388.076171875 223.290039062 c 5
 341.2578125 277.043945312 337.790039062 264.0390625 272.765625 286.581054688 c 5
 240.685546875 284.846679688 198.202148438 288.315429688 181.73046875 279.64453125 c 5
 130.577148438 290.916015625 151.384765625 159.131835938 151.384765625 128.786132812 c 5
 172.192382812 66.36328125 285.770507812 95.8408203125 320.450195312 98.44140625 c 4
371.602539062 565.754882812 m 5
 331.720703125 595.233398438 325.651367188 609.971679688 264.961914062 611.706054688 c 5
 207.740234375 623.84375 208.606445312 607.37109375 158.321289062 611.706054688 c 5
 126.2421875 620.375976562 140.11328125 586.563476562 140.11328125 551.883789062 c 4x80
 140.11328125 543.213867188 139.247070312 515.46875 140.981445312 508.533203125 c 4
 138.379882812 480.7890625 138.379882812 440.90625 142.71484375 418.365234375 c 4
 160.921875 349.004882812 168.725585938 362.876953125 221.611328125 367.211914062 c 4
 337.790039062 374.1484375 422.755859375 512.000976562 371.602539062 565.754882812 c 5
EndSplineSet
Validated: 33
EndChar

StartChar: C
Encoding: 2 67 2
Width: 459
VWidth: 0
Flags: HW
LayerCount: 2
Fore
SplineSet
242.2265625 33.494140625 m 5
 193.188476562 52.7587890625 134.518554688 96.54296875 122.259765625 124.564453125 c 5
 88.984375 169.22265625 69.71875 227.893554688 60.0869140625 264.670898438 c 4
 50.4541015625 301.44921875 53.08203125 329.469726562 50.4541015625 360.118164062 c 4
 41.697265625 560.647460938 161.665039062 642.084960938 236.971679688 677.111328125 c 4
 262.366210938 685.868164062 286.009765625 699.879882812 330.668945312 702.505859375 c 5
 370.94921875 699.879882812 384.084960938 706.0078125 398.095703125 684.993164062 c 4
 458.515625 588.668945312 186.18359375 652.592773438 151.15625 446.810546875 c 4
 138.897460938 376.756835938 139.7734375 364.49609375 141.524414062 322.46484375 c 5
 164.291015625 168.34765625 262.366210938 108.801757812 379.706054688 75.5263671875 c 5
 395.46875 66.76953125 405.1015625 72.0234375 409.479492188 39.6240234375 c 5
 412.106445312 -25.17578125 284.2578125 7.2236328125 242.2265625 33.494140625 c 5
EndSplineSet
Validated: 33
EndChar

StartChar: D
Encoding: 3 68 3
Width: 523
VWidth: 0
Flags: W
VStem: -51.5758 125.186<411.715 705.584> -49.454 135.795<26.6082 704.523>
LayerCount: 2
Fore
SplineSet
66.1533203125 26.0615234375 m 5x80
 47.767578125 157.385742188 63.52734375 291.337890625 56.5224609375 372.758789062 c 4x40
 54.7724609375 382.389648438 54.7724609375 406.903320312 54.7724609375 426.165039062 c 4
 52.14453125 533.8515625 52.14453125 557.490234375 50.39453125 617.8984375 c 4
 47.767578125 668.677734375 58.2734375 694.067382812 81.037109375 699.3203125 c 5
 397.966796875 711.577148438 462.754882812 620.525390625 472.384765625 372.758789062 c 4
 477.638671875 305.344726562 468.006835938 285.208984375 463.629882812 231.803710938 c 5
 431.237304688 115.362304688 432.112304688 70.7109375 283.27734375 14.6796875 c 5
 229.872070312 -1.080078125 66.1533203125 -10.7099609375 66.1533203125 26.0615234375 c 5x80
374.329101562 231.803710938 m 5
 407.598632812 453.3046875 393.58984375 639.786132812 137.068359375 621.401367188 c 5x80
 135.317382812 584.629882812 137.944335938 502.333007812 143.197265625 469.939453125 c 4
 151.952148438 363.12890625 144.072265625 180.1484375 145.823242188 91.7236328125 c 5
 288.529296875 75.96484375 364.698242188 145.12890625 374.329101562 231.803710938 c 5
EndSplineSet
Validated: 33
EndChar

StartChar: A
Encoding: 0 65 4
Width: 614
VWidth: 0
Flags: HW
LayerCount: 2
Fore
SplineSet
488.045898438 10.1455078125 m 4
 464.63671875 43.091796875 460.301757812 28.353515625 446.430664062 97.7138671875 c 4
 442.095703125 127.190429688 429.95703125 148.866210938 423.021484375 157.536132812 c 4
 388.341796875 192.215820312 275.631835938 171.408203125 224.477539062 164.471679688 c 4
 124.7734375 152.333984375 158.5859375 25.751953125 80.556640625 16.21484375 c 4
 29.4033203125 23.150390625 55.4130859375 96.845703125 66.68359375 117.654296875 c 4
 140.37890625 256.374023438 182.862304688 437.576171875 228.8125 571.961914062 c 4
 235.749023438 591.036132812 242.685546875 614.4453125 254.823242188 637.854492188 c 4
 404.813476562 883.21484375 491.513671875 273.713867188 534.86328125 146.264648438 c 4
 547.001953125 95.9794921875 566.076171875 69.1015625 564.341796875 39.6240234375 c 4
 566.076171875 3.2099609375 499.317382812 -8.060546875 488.045898438 10.1455078125 c 4
374.46875 247.704101562 m 4
 390.942382812 249.438476562 404.813476562 255.506835938 403.080078125 271.11328125 c 4
 393.54296875 352.610351562 379.670898438 450.58203125 339.7890625 504.3359375 c 4
 328.517578125 519.94140625 319.84765625 533.814453125 307.7109375 515.606445312 c 4
 291.237304688 490.463867188 204.537109375 322.265625 234.015625 252.90625 c 4
 263.493164062 206.088867188 332.852539062 242.501953125 374.46875 247.704101562 c 4
52.8125 65.6337890625 m 5
 48.4775390625 22.2841796875 50.2109375 43.091796875 52.8125 65.6337890625 c 5
EndSplineSet
Validated: 37
EndChar

StartChar: E
Encoding: 4 69 5
Width: 472
VWidth: 0
Flags: HW
LayerCount: 2
Fore
SplineSet
65.642578125 125.376953125 m 5
 65.333984375 252.577148438 61.12109375 401.961914062 56.5615234375 522.797851562 c 5
 42.02734375 644.452148438 46.3134765625 677.592773438 125.173828125 687.646484375 c 5
 189.291992188 687.841796875 394.618164062 717.619140625 413.619140625 677.829101562 c 5
 470.358398438 584.735351562 240.9140625 601.481445312 183.547851562 601.390625 c 5
 158.940429688 596.9921875 142.553710938 605.634765625 137.659179688 586.2890625 c 4
 124.262695312 470.862304688 113.349609375 362.822265625 231.383789062 385.247070312 c 4
 280.168945312 395.435546875 396.6484375 403.354492188 376.592773438 338.735351562 c 5
 363.309570312 257.109375 159.528320312 334.56640625 129.946289062 261.133789062 c 5
 134.865234375 189.33984375 150.325195312 167.430664062 142.806640625 108.708984375 c 5
 168.827148438 67.029296875 290.259765625 93.123046875 345.038085938 92.5068359375 c 4
 378.40625 93.9794921875 423.556640625 76.6689453125 419.444335938 45.9150390625 c 5
 409.306640625 13.599609375 394.193359375 5.9345703125 366.263671875 4.3974609375 c 4
 168.751953125 6.88671875 57.017578125 -36.1171875 65.642578125 125.376953125 c 5
EndSplineSet
Validated: 33
EndChar

StartChar: F
Encoding: 5 70 6
Width: 462
VWidth: 0
Flags: HW
LayerCount: 2
Fore
SplineSet
93.4580078125 4.837890625 m 4
 83.3583984375 9.59375 66.04296875 19.35546875 66.05078125 19.564453125 c 4
 59.4755859375 73.287109375 57.1376953125 188.625976562 58.3408203125 285.994140625 c 4
 57.880859375 296.982421875 56.7001953125 326.674804688 56.7001953125 326.674804688 c 6
 51.388671875 392.653320312 61.0908203125 438.401367188 54.453125 519.77734375 c 4
 46.0986328125 585.913085938 50.2060546875 668.236328125 60.896484375 670.793945312 c 5
 67.8544921875 718.748046875 270.987304688 688.8359375 338.875976562 691.552734375 c 5
 377.256835938 697.48046875 413.36328125 678.067382812 412.891601562 647.841796875 c 5
 409.07421875 622.215820312 401.858398438 619.568359375 374.76171875 609.430664062 c 4
 318.947265625 588.549804688 218.702148438 605.2734375 173.810546875 600.888671875 c 5
 111.478515625 574.2421875 149.482421875 440.881835938 145.266601562 414.719726562 c 4
 142.662109375 379.4765625 384.109375 419.200195312 396.53515625 396.5625 c 4
 473.038085938 274.418945312 194.8359375 330.8671875 155.951171875 323.56640625 c 4
 152.172851562 322.556640625 147.620117188 321.711914062 145.833007812 321.690429688 c 4
 140.140625 248.252929688 141.833007812 214.577148438 146.530273438 150.1171875 c 4
 150.715820312 118.181640625 151.903320312 88.912109375 151.833984375 61.7666015625 c 4
 151.59375 37.3759765625 151.405273438 19.2314453125 143.122070312 8.0126953125 c 4
 132.8203125 -0.9794921875 105.951171875 -1.0009765625 93.4580078125 4.837890625 c 4
EndSplineSet
Validated: 33
EndChar

StartChar: G
Encoding: 6 71 7
Width: 619
VWidth: 0
Flags: HW
LayerCount: 2
Fore
SplineSet
192.01171875 45.4599609375 m 4
 161.146484375 77.2373046875 169.779296875 56.005859375 139.22265625 89.328125 c 4
 93.46875 171.41015625 77.14453125 239.544921875 55.3740234375 322.197265625 c 4
 34.453125 416.512695312 79.9091796875 512.689453125 101.067382812 539.8984375 c 4
 104.033203125 548.713867188 109.4296875 557.75 113.364257812 560.498046875 c 4
 180.59765625 657.004882812 266.087890625 700.87109375 414.09375 701.216796875 c 4
 437.643554688 699.55078125 471.677734375 706.0703125 486.229492188 693.3515625 c 4
 515.374023438 649.401367188 481.646484375 625.790039062 470.6015625 622.786132812 c 4
 446.260742188 614.799804688 447.126953125 618.166015625 406.419921875 613.642578125 c 4
 303.592773438 608.971679688 262.717773438 584.719726562 215.61328125 535.18359375 c 4
 171.029296875 492.325195312 149.966796875 446.321289062 141.44921875 382.184570312 c 4
 144.225585938 359.240234375 140.384765625 297.56640625 153.815429688 272.80078125 c 4
 172.3046875 217.688476562 182.126953125 186.53515625 209.935546875 156.26953125 c 5
 255.526367188 58.9619140625 457.802734375 52.8681640625 482.518554688 132.08984375 c 4
 497.138671875 166.998046875 492.546875 183.208007812 500.595703125 228.162109375 c 4
 503.163085938 263.986328125 506.278320312 292.005859375 485.374023438 292.569335938 c 4
 461.709960938 297.627929688 392.576171875 272.7578125 384.747070312 318.369140625 c 4
 374.125 382.625 404.981445312 369.275390625 434.819335938 377.795898438 c 4
 458.827148438 387.3984375 564.720703125 377.431640625 569.354492188 349.998046875 c 4
 566.756835938 276.678710938 567.49609375 286.873046875 564.817382812 215.431640625 c 4
 561.51953125 190.8828125 559.623046875 172.44921875 560.094726562 157.4765625 c 4
 543.178710938 41.0712890625 475.333984375 29.896484375 404.625976562 3.75 c 4
 353.069335938 -4.748046875 238.295898438 10.494140625 192.01171875 45.4599609375 c 4
EndSplineSet
Validated: 33
EndChar

StartChar: H
Encoding: 7 72 8
Width: 529
VWidth: 0
Flags: HW
LayerCount: 2
Fore
SplineSet
87.2392578125 1.36328125 m 5
 61.8623046875 9.990234375 65.81640625 29.6455078125 62.14453125 43.962890625 c 4
 58.8955078125 80.7705078125 57.7578125 132.241210938 59.166015625 159.443359375 c 4
 58.818359375 308.12109375 59.3134765625 464.393554688 52.890625 610.083007812 c 4
 49.171875 629.293945312 46.041015625 691.143554688 63.650390625 695.028320312 c 4
 79.6220703125 695.6015625 113.194335938 706.779296875 120.779296875 692.255859375 c 5
 151.170898438 659.842773438 140.23046875 592.668945312 144.048828125 552.35546875 c 4
 145.20703125 513.71484375 145.647460938 480.403320312 145.575195312 450.693359375 c 4
 145.185546875 442.814453125 146.923828125 406.088867188 150.448242188 395.6796875 c 5
 261.354492188 390.5859375 273.229492188 399.579101562 392.489257812 397.068359375 c 4
 393.594726562 397.192382812 394.215820312 401.438476562 393.865234375 406.489257812 c 4
 385.284179688 480.060546875 395.000976562 532.328125 386.375 605.538085938 c 5
 388.338867188 654.124023438 380.740234375 710.4296875 445.995117188 696.623046875 c 5
 493.775390625 695.296875 475.754882812 553.329101562 475.477539062 502.51953125 c 4
 475.395507812 499.966796875 475.236328125 495.092773438 475.126953125 491.688476562 c 4
 476.657226562 341.899414062 478.088867188 172.623046875 478.64453125 68.05078125 c 4
 479.668945312 0.9755859375 477.545898438 2.0068359375 445.790039062 1.2060546875 c 4
 412.734375 2.9375 406.484375 2.4111328125 400.916992188 52.1806640625 c 5
 402.538085938 135.732421875 394.678710938 227.887695312 397.793945312 302.30859375 c 5
 322.771484375 310.265625 305.966796875 301.778320312 256.68359375 301.900390625 c 4
 124.139648438 308.313476562 139.030273438 247.448242188 136.776367188 144.330078125 c 5
 141.416992188 100.501953125 139.95703125 69.109375 143.859375 57.5380859375 c 5
 147.370117188 7.06640625 121.166992188 -5.3798828125 87.248046875 1.3583984375 c 5
 87.2392578125 1.36328125 l 5
EndSplineSet
Validated: 33
EndChar

StartChar: I
Encoding: 8 73 9
Width: 361
VWidth: 0
Flags: HW
LayerCount: 2
Fore
SplineSet
70.4482421875 79.88671875 m 4
 89.333984375 86.9560546875 127.134765625 85.73828125 143.374023438 86.05859375 c 5
 149.571289062 256.262695312 144.748046875 459.888671875 148.079101562 617.579101562 c 5
 112.635742188 619.610351562 82.814453125 612.215820312 65.251953125 627.123046875 c 4
 44.09375 646.69921875 45.4130859375 688.219726562 70.7333984375 694.184570312 c 4
 94.236328125 700.952148438 137.34765625 701.516601562 180.578125 701.102539062 c 4
 218.7265625 700.736328125 263.692382812 700.607421875 286.064453125 696.459960938 c 4
 323.048828125 688.012695312 311.932617188 636.875 298.225585938 628.569335938 c 5
 288.809570312 616.946289062 240.90625 620.442382812 211.762695312 617.891601562 c 5
 221.744140625 651.13671875 212.0859375 123.186523438 216.428710938 87.4365234375 c 5
 237.318359375 87.2275390625 260.46484375 88.15234375 284.080078125 84.98046875 c 4
 314.170898438 77.8505859375 317.184570312 9.787109375 282.970703125 2.2646484375 c 5
 200.279296875 1.607421875 85.435546875 -0.439453125 72.009765625 3.89453125 c 5
 30.1640625 30.630859375 58.72265625 77.12109375 70.4482421875 79.88671875 c 4
EndSplineSet
Validated: 37
EndChar

StartChar: J
Encoding: 9 74 10
Width: 310
VWidth: 0
Flags: HW
LayerCount: 2
Fore
SplineSet
52.099609375 19.4755859375 m 5
 47.0478515625 55.9619140625 50.3427734375 73.8515625 70.5048828125 78.8115234375 c 5
 77.5078125 77.0322265625 107.802734375 85.001953125 133.719726562 99.833984375 c 4
 157.1640625 111.4375 173.978515625 134.52734375 175.708007812 156.83203125 c 4
 188.686523438 228.841796875 185.3359375 296.060546875 182.520507812 373.98828125 c 5
 185.948242188 421.477539062 180.638671875 476.4765625 180.657226562 518.755859375 c 4
 181.877929688 567.82421875 167.604492188 693.586914062 189.2890625 697.016601562 c 4
 207.880859375 702.973632812 246.236328125 703.53125 255.440429688 687.295898438 c 5
 264.18359375 654.719726562 257.102539062 611.741210938 259.391601562 578.903320312 c 4
 259.501953125 424.379882812 262.849609375 260.447265625 253.268554688 109.541992188 c 5
 240.560546875 71.2158203125 225.396484375 65.162109375 226.583984375 64.623046875 c 5
 206.57421875 38.7939453125 162.680664062 26.0771484375 146.28125 15.052734375 c 4
 144.036132812 13.2666015625 138.981445312 11.4296875 135.048828125 10.9697265625 c 4
 131.116210938 10.509765625 127.6171875 9.8642578125 127.274414062 9.5361328125 c 4
 126.930664062 9.2080078125 125.563476562 8.7998046875 124.235351562 8.6279296875 c 4
 90.689453125 -4.5908203125 63.91015625 -0.9638671875 52.099609375 19.4755859375 c 5
EndSplineSet
Validated: 33
EndChar

StartChar: K
Encoding: 10 75 11
Width: 556
VWidth: 0
Flags: HW
LayerCount: 2
Fore
SplineSet
77.673828125 9.21484375 m 5
 40.5830078125 7.87109375 52.3876953125 133.078125 53.7802734375 170.559570312 c 4
 54.0810546875 176.009765625 53.98046875 181.821289062 53.5537109375 183.47265625 c 4
 51.595703125 232.556640625 52.34765625 211.65234375 51.73046875 257.791015625 c 4
 53.0888671875 391.091796875 51.2763671875 553.732421875 50.0283203125 665.290039062 c 4
 48.8251953125 683.651367188 86.826171875 699.517578125 99.71875 700.568359375 c 4
 131.024414062 702.904296875 112.974609375 683.969726562 124.427734375 673.498046875 c 5
 135.780273438 620.727539062 133.805664062 543.96875 134.126953125 490.504882812 c 5
 126.905273438 455.629882812 134.9921875 436.591796875 131.65625 413.603515625 c 4
 129.7421875 400.56640625 131.7265625 389.180664062 131.571289062 380.592773438 c 5
 145.096679688 401.13671875 148.780273438 400.977539062 162.729492188 421.5390625 c 5
 192.25390625 451.432617188 200.096679688 472.418945312 219.365234375 493.706054688 c 4
 224.139648438 498.93359375 228.045898438 504.18359375 228.045898438 505.374023438 c 4
 228.045898438 506.564453125 233.602539062 512.681640625 240.395507812 518.96875 c 4
 247.1875 525.255859375 259.450195312 536.818359375 267.645507812 544.6640625 c 4
 324.614257812 612.6796875 345.8125 634.528320312 408.217773438 678.359375 c 4
 408.217773438 679.989257812 413.866210938 682.755859375 420.768554688 684.508789062 c 4
 436.310546875 688.453125 435.44140625 690.642578125 455.419921875 670.162109375 c 5
 475.49609375 662.93359375 462.881835938 630.02734375 424.70703125 593.421875 c 5
 372.685546875 530.138671875 316.329101562 477.170898438 263.258789062 419.966796875 c 4
 255.650390625 408.383789062 231.776367188 380.594726562 229.426757812 374.228515625 c 5
 237.508789062 351.32421875 259.533203125 332.451171875 272.737304688 313.84375 c 4
 307.6796875 270.084960938 323.318359375 247.360351562 351.807617188 214.80859375 c 4
 400.4453125 153.14453125 431.946289062 118.440429688 473.2265625 74.3486328125 c 4
 486.981445312 63.8056640625 505.616210938 51.2412109375 506.10546875 39.2470703125 c 4
 506.350585938 32.640625 504.900390625 25.2080078125 502.885742188 22.73046875 c 4
 500.87109375 20.2529296875 499.08984375 17.2265625 498.926757812 16.005859375 c 4
 467.940429688 -3.9921875 438.573242188 -3.361328125 415.350585938 12.3701171875 c 5
 402.068359375 29.203125 372.836914062 49.87890625 361.359375 64.96484375 c 4
 319.969726562 121.37109375 302.8984375 131.2578125 283.392578125 167.028320312 c 4
 277.219726562 177.254882812 268.508789062 185.765625 262.9765625 194.0546875 c 4
 247.734375 212.890625 241.893554688 222.600585938 226.544921875 238.9375 c 4
 219.112304688 246.806640625 213.03125 254.241210938 213.03125 255.459960938 c 4
 204.141601562 267.846679688 190.052734375 271.381835938 180.42578125 286.481445312 c 5
 165.786132812 301.142578125 177.084960938 307.41796875 157.798828125 299.490234375 c 4
 150.217773438 296.752929688 130.150390625 286.53515625 134.475585938 277.252929688 c 5
 128.916992188 199.7890625 142.754882812 106.608398438 132.829101562 39.43359375 c 5
 120.046875 25.6953125 111.6484375 15.94921875 95.505859375 10.78125 c 4
 85.39453125 7.751953125 84.16796875 8.3935546875 77.6748046875 9.2021484375 c 5
 77.673828125 9.21484375 l 5
EndSplineSet
Validated: 33
EndChar

StartChar: L
Encoding: 11 76 12
Width: 475
VWidth: 0
Flags: HW
LayerCount: 2
Fore
SplineSet
85.8984375 4.53125 m 4
 60.7763671875 8.7548828125 53.884765625 11.060546875 51.4208984375 32.146484375 c 4
 48.8291015625 90.908203125 51.8505859375 110.16796875 51.419921875 195.250976562 c 4
 53.5625 312.240234375 47.78125 512.018554688 50.99609375 538.024414062 c 5
 50.7666015625 602.806640625 50.2373046875 665.159179688 59.083984375 677.666992188 c 4
 76.0498046875 701.723632812 109.427734375 706.3984375 126.358398438 695.452148438 c 4
 136.047851562 689.103515625 142.23046875 661.98828125 137.501953125 646.581054688 c 5
 141.583984375 589.166992188 137.682617188 537.61328125 138.512695312 497.756835938 c 4
 138.302734375 392.026367188 138.853515625 302.455078125 136.110351562 214.76953125 c 5
 141.983398438 166.420898438 133.431640625 134.529296875 142.02734375 88.9287109375 c 5
 210.485351562 77.15234375 305.583007812 91.2734375 369.181640625 90.41796875 c 4
 396.352539062 90.4990234375 407.083984375 91.396484375 418.129882812 82.5712890625 c 5
 425.428710938 52.970703125 432.479492188 37.1171875 413.108398438 10.8251953125 c 5
 364.241210938 -4.8056640625 344.240234375 7.2138671875 293.259765625 2.234375 c 4
 268.59765625 -0.6025390625 238.565429688 2.5859375 220.30859375 2.3955078125 c 4
 171.959960938 2.8857421875 122.783203125 -1.1015625 85.8984375 4.53125 c 4
EndSplineSet
Validated: 33
EndChar

StartChar: M
Encoding: 12 77 13
Width: 622
VWidth: 0
Flags: HW
LayerCount: 2
Fore
SplineSet
83.0869140625 6.697265625 m 4
 69.21484375 12.84765625 53.8974609375 39.642578125 51.595703125 65.6826171875 c 4
 50.5625 76.7578125 51.0068359375 79.935546875 50.0830078125 90.38671875 c 4
 57.6923828125 274.862304688 47.2646484375 400.50390625 50.7294921875 531.791992188 c 4
 53.5283203125 583.26953125 46.109375 678.248046875 64.556640625 691.52734375 c 5
 86.658203125 702.383789062 81.5 700.086914062 105.376953125 698.302734375 c 4
 118.140625 696.060546875 122.26171875 696.40234375 129.865234375 692.076171875 c 4
 140.811523438 679.372070312 140.680664062 672.227539062 143.547851562 668.716796875 c 4
 198.995117188 513.048828125 258.961914062 334.318359375 302.686523438 194.323242188 c 4
 308.561523438 183.06640625 307.442382812 177.739257812 317.319335938 181.182617188 c 5
 324.548828125 188.765625 335.177734375 211.474609375 341.116210938 222.5625 c 4
 390.125976562 381.796875 407.607421875 454.420898438 451.434570312 629.310546875 c 4
 457.1484375 642.591796875 470.86328125 684.790039062 474.697265625 689.267578125 c 5
 495.60546875 695.190429688 558.53515625 712.694335938 558.541992188 686.629882812 c 4
 560.943359375 669.194335938 561.296875 657.774414062 562.23828125 642.508789062 c 4
 576.947265625 435.057617188 564.881835938 251.674804688 569.938476562 94.552734375 c 4
 570.26171875 83.8798828125 570.631835938 72.708984375 570.760742188 69.7294921875 c 4
 571.485351562 52.30078125 572.61328125 40.2978515625 571.758789062 30.5458984375 c 4
 566.0859375 7.9345703125 566.424804688 0.4970703125 535.208984375 0.5244140625 c 4
 525.200195312 0.939453125 504.336914062 1.5869140625 499.564453125 12.1435546875 c 4
 496.637695312 16.5400390625 496.502929688 20.296875 496.616210938 31.287109375 c 4
 488.020507812 186.724609375 492.15625 285.186523438 483.228515625 442.42578125 c 4
 484.907226562 444.635742188 484.361328125 447.25390625 481.659179688 449.956054688 c 4
 477.983398438 453.631835938 477.262695312 452.936523438 475.2734375 443.795898438 c 4
 424.296875 282.495117188 427.234375 222.004882812 367.71484375 115.243164062 c 4
 360.916015625 104.081054688 361.494140625 101.796875 353.569335938 91.9345703125 c 4
 344.484375 78.7666015625 338.862304688 74.5439453125 329.163085938 71.859375 c 4
 206.326171875 74.8125 190.560546875 428.62890625 137.928710938 449.498046875 c 5
 133.385742188 363.48046875 140.233398438 258.555664062 139.3984375 195.328125 c 4
 138.002929688 144.083984375 148.122070312 34.107421875 139.178710938 16.9833984375 c 5
 133.356445312 -5.05859375 105.135742188 0.9873046875 83.0869140625 6.697265625 c 4
EndSplineSet
Validated: 33
EndChar

StartChar: N
Encoding: 13 78 14
Width: 564
VWidth: 0
Flags: HW
LayerCount: 2
Fore
SplineSet
65.4501953125 4.7197265625 m 2
 59.75 11.96875 61.7587890625 6.6181640625 58.5771484375 16.8515625 c 0
 56.9736328125 57.76953125 50.6572265625 82.2734375 52.7470703125 112.104492188 c 0
 51.63671875 155.111328125 54.6845703125 192.053710938 53.9736328125 215.12109375 c 0
 46.5791015625 287.912109375 54.3408203125 350.055664062 52.0771484375 422.8203125 c 0
 49.4208984375 424.461914062 49.3173828125 425.521484375 51.736328125 426.327148438 c 0
 51.4609375 500.715820312 50.8251953125 597.389648438 52.7177734375 629.360351562 c 0
 53.5380859375 643.572265625 54.8955078125 655.88671875 55.734375 656.725585938 c 0
 56.5732421875 657.563476562 56.6123046875 659.935546875 55.8212890625 661.99609375 c 0
 53.451171875 668.172851562 70.1806640625 686.424804688 76.630859375 688.470703125 c 0
 104.431640625 686.0390625 138.309570312 686.919921875 143.916015625 679.807617188 c 0
 235.993164062 564.5234375 248.219726562 418.30859375 325.258789062 299.283203125 c 0
 346.409179688 267.01953125 371.534179688 228.373046875 388.60546875 204.35546875 c 0
 409.1328125 179.278320312 422.564453125 142.255859375 440.932617188 117.622070312 c 0
 459.845703125 94.1201171875 441.88671875 101.159179688 441.356445312 124.966796875 c 0
 437.428710938 299.419921875 406.436523438 524.372070312 442.5390625 681.7109375 c 0
 447.08984375 691.747070312 463.306640625 699.016601562 472.325195312 699.446289062 c 0
 476.0078125 699.581054688 481.037109375 700.280273438 483.5 701 c 0
 498.266601562 694.0703125 509.301757812 696.529296875 511.999023438 672.002929688 c 0
 512.185546875 669.866210938 512.9296875 663.22265625 513.650390625 657.239257812 c 0
 515.551757812 641.451171875 515.557617188 641.693359375 512.926757812 623.048828125 c 0
 511.598632812 613.645507812 510.548828125 585.451171875 510.591796875 560.392578125 c 0
 510.3671875 507.009765625 510.099609375 507.4296875 509.40625 474.873046875 c 0
 509.588867188 403.154296875 511.064453125 319.236328125 510.440429688 282.451171875 c 1
 513.150390625 251.74609375 510.168945312 228.74609375 510.934570312 219.997070312 c 0
 508.3515625 154.75390625 516.450195312 113.090820312 511.267578125 86.6318359375 c 1
 499.76953125 50.41796875 492.03125 11.875 455.709960938 1 c 1
 431.724609375 4.59765625 422.275390625 9.6279296875 417.163085938 16.3115234375 c 0
 405.650390625 26.015625 419.3515625 11.0390625 410.755859375 19.783203125 c 0
 332.065429688 95.8017578125 290.364257812 215.762695312 233.741210938 305.384765625 c 0
 221.029296875 329.3046875 222.989257812 327.198242188 208.640625 355.2578125 c 0
 195.9765625 381.719726562 195.565429688 383.830078125 186.534179688 404.495117188 c 1
 171.872070312 428.340820312 165.622070312 447.431640625 156.1640625 468.413085938 c 0
 140.737304688 507.091796875 138.850585938 532.693359375 126.09765625 557.7421875 c 1
 126.627929688 563.716796875 129.540039062 547.610351562 131.422851562 541.916015625 c 0
 130.997070312 532.947265625 130.025390625 528.73046875 131.647460938 523.703125 c 0
 143.418945312 413.353515625 122.6953125 294.079101562 135.401367188 197.6328125 c 0
 136.350585938 196.013671875 137.490234375 186.88671875 137.932617188 177.349609375 c 0
 140.059570312 161.864257812 138.953125 144.1015625 142.556640625 134.525390625 c 0
 144.3671875 129.82421875 146.325195312 115.364257812 146.909179688 102.392578125 c 0
 147.493164062 89.4208984375 150.416015625 70.5390625 153.404296875 60.431640625 c 0
 161.411132812 33.3486328125 159.58984375 8.7861328125 148.202148438 8.7861328125 c 0
 124.5703125 6.25390625 86.99609375 -3.3212890625 65.4501953125 4.71875 c 1
 65.4501953125 4.7197265625 l 2
EndSplineSet
Validated: 37
EndChar

StartChar: O
Encoding: 14 79 15
Width: 672
VWidth: 0
Flags: HW
LayerCount: 2
Fore
SplineSet
50.015625 359.668945312 m 1
 46.46875 821.19921875 660.68359375 810.536132812 620.6640625 346.62890625 c 1
 639.010742188 -99.38671875 63.3994140625 -135.254882812 50.015625 359.668945312 c 1
542.116210938 355.9296875 m 1
 530.229492188 711.500976562 142.766601562 699.647460938 140.357421875 357.889648438 c 1
 170.139648438 -27.3818359375 544.024414062 23.0322265625 542.116210938 355.9296875 c 1
EndSplineSet
Validated: 33
EndChar

StartChar: P
Encoding: 15 80 16
Width: 516
VWidth: 0
Flags: HW
LayerCount: 2
Fore
SplineSet
54.884765625 42.89453125 m 4
 53.9833984375 56.419921875 54.7255859375 60.05859375 54.01953125 75.8203125 c 4
 53.1396484375 109.5546875 52.7197265625 115.482421875 55.2216796875 169.21875 c 4
 58.6015625 225.713867188 48.8447265625 262.157226562 51.6357421875 317.252929688 c 4
 52.205078125 364.296875 48.3271484375 399.002929688 50.8779296875 439.899414062 c 4
 50.4375 494.18359375 57.1884765625 530.94921875 52.7197265625 565.515625 c 4
 48.4521484375 610.158203125 61.953125 634.76953125 66.7275390625 643.750976562 c 4
 78.8984375 662.506835938 104.69921875 680.305664062 124.37890625 684.493164062 c 4
 166.6328125 690.83984375 161.44921875 700.629882812 204.866210938 698.740234375 c 4
 238.391601562 697.537109375 255.583007812 704.776367188 273.432617188 697.581054688 c 4
 277.823242188 695.767578125 285.694335938 693.943359375 290.92578125 693.526367188 c 4
 339.637695312 688.333984375 339.311523438 691.68359375 376.513671875 683.796875 c 4
 396.836914062 680.834960938 409.990234375 659.905273438 426.791992188 648.049804688 c 4
 430.2578125 645.61328125 433.092773438 642.384765625 433.092773438 640.875976562 c 4
 444.912109375 623.765625 450.864257812 604.303710938 454.947265625 589.064453125 c 4
 470.59375 551.364257812 466.604492188 478.454101562 462.966796875 435.106445312 c 4
 461.009765625 415.921875 443.100585938 376.682617188 430.580078125 361.715820312 c 4
 403.192382812 326.552734375 391.783203125 301.565429688 346.083984375 278.21875 c 4
 343.053710938 278.21875 308.16796875 271.635742188 308.16796875 270.252929688 c 4
 259.865234375 260.69140625 236.966796875 253.534179688 199.891601562 260.672851562 c 4
 195.663085938 261.443359375 190.625976562 263.051757812 188.698242188 264.248046875 c 4
 186.771484375 265.443359375 178.182617188 266.866210938 169.610351562 267.408203125 c 4
 140.198242188 271.588867188 130.614257812 263.276367188 129.422851562 249.032226562 c 4
 129.110351562 205.709960938 127.025390625 169.391601562 128.930664062 138.694335938 c 4
 131.90625 125.90625 132.594726562 79.9892578125 131.486328125 77.9658203125 c 4
 131.791992188 61.5673828125 133.530273438 56.94140625 133.8203125 46.029296875 c 4
 134.052734375 34.765625 135.115234375 27.5478515625 135.115234375 22.388671875 c 4
 135.115234375 12.4853515625 133.168945312 7.921875 126.530273438 5.4140625 c 4
 107.282226562 -0.06640625 107.71875 0.123046875 92.4619140625 2.0146484375 c 4
 82.64453125 0.599609375 73.447265625 3.8193359375 65.1240234375 3.6728515625 c 5
 50.123046875 11.9375 54.8447265625 34.767578125 54.884765625 42.89453125 c 4
267.97265625 338.243164062 m 4
 313.260742188 342.87890625 316.342773438 348.837890625 345.736328125 372.850585938 c 4
 347.987304688 372.850585938 368.579101562 403.5625 371.362304688 407.828125 c 4
 374.146484375 412.092773438 376.151367188 422.18359375 377.834960938 424.236328125 c 4
 385.58203125 453.095703125 389.903320312 436.862304688 389.784179688 465.44140625 c 5
 395.419921875 511.546875 389.3125 473.561523438 387.053710938 524.705078125 c 4
 386.728515625 566.940429688 377.42578125 584.16796875 366.184570312 600.104492188 c 4
 366.184570312 602.26953125 341.916015625 608.147460938 338.630859375 609.009765625 c 4
 311.008789062 610.244140625 317.377929688 612.8984375 297.168945312 614.478515625 c 5
 280.899414062 621.056640625 264.505859375 616.137695312 247.849609375 616.0703125 c 5
 231.049804688 621.663085938 204.125 618.412109375 189.1328125 617.35546875 c 4
 179.958007812 617.83203125 176.993164062 621.47265625 136.436523438 603.916992188 c 5
 125.87890625 591.420898438 130.145507812 582.801757812 126.626953125 560.4609375 c 4
 123.178710938 550.177734375 127.537109375 527.262695312 126.645507812 511.842773438 c 4
 123.166992188 469.90625 125.594726562 441.255859375 130.770507812 410.109375 c 4
 131.532226562 391.86328125 127.244140625 372.887695312 131.735351562 362.790039062 c 4
 138.415039062 347.313476562 147.049804688 349.20703125 166.647460938 347.73046875 c 5
 178.311523438 350.009765625 186.700195312 343.40625 217.111328125 337.392578125 c 5
 254.069335938 335.078125 239.12109375 335.025390625 267.97265625 338.243164062 c 4
EndSplineSet
Validated: 33
EndChar

StartChar: Q
Encoding: 16 81 17
Width: 654
VWidth: 0
Flags: HW
LayerCount: 2
Fore
SplineSet
513.998046875 -85.5576171875 m 4
 491.583984375 -64.69921875 458.837890625 17.126953125 437.208007812 14.4248046875 c 5
 337.7578125 -16.4599609375 224.114257812 3.53125 150.309570312 65.7646484375 c 4
 74.0048828125 132.75 40.7392578125 249.834960938 39.3173828125 360.6953125 c 4
 38.2783203125 441.68359375 56.708984375 508.173828125 88.9599609375 570.215820312 c 4
 143.016601562 676.168945312 234.978515625 708.876953125 373.100585938 700.026367188 c 5
 669.516601562 655.330078125 661.725585938 222.31640625 526.35546875 53.5400390625 c 5
 545.7578125 7.4775390625 585.83203125 -10.734375 592.908203125 -47.3193359375 c 5
 589.639648438 -97.7314453125 531.005859375 -104.106445312 513.998046875 -85.5576171875 c 4
520.456054688 351.015625 m 5
 507.837890625 463.96875 508.624023438 566.72265625 349.014648438 600.73046875 c 5
 264.783203125 604.2578125 211.498046875 588.439453125 165.884765625 509.16015625 c 5
 123.1171875 393.681640625 124.986328125 183.350585938 244.740234375 123.419921875 c 5
 281.049804688 100.64453125 317.44921875 92.2763671875 354.6015625 92.630859375 c 5
 485.1484375 108.516601562 520.59375 226.380859375 520.456054688 351.015625 c 5
EndSplineSet
Validated: 33
EndChar

StartChar: R
Encoding: 17 82 18
Width: 560
VWidth: 0
Flags: HW
LayerCount: 2
Fore
SplineSet
58.634765625 48.6201171875 m 5
 59.158203125 151.001953125 52.5693359375 317.577148438 50.9921875 489.216796875 c 5
 55.5498046875 537.865234375 42.5361328125 600.049804688 57.2509765625 655.352539062 c 4
 61.4873046875 677.60546875 87.826171875 683.443359375 111.078125 690.767578125 c 4
 141.577148438 700.375976562 186.760742188 698.943359375 208.081054688 699.624023438 c 4
 517.865234375 715.22265625 536.069335938 376.884765625 339.686523438 301.836914062 c 5
 380.700195312 233.096679688 452.4921875 119.775390625 501.787109375 70.4912109375 c 5
 536.258789062 16.1875 462.609375 -19.6708984375 421.356445312 20.0205078125 c 5
 364.889648438 90.33984375 302.245117188 198.932617188 255.458984375 274.774414062 c 5
 234.59375 283.198242188 178.235351562 279.875976562 142.870117188 277.30859375 c 5
 139.954101562 221.627929688 147.666992188 105.249023438 142.96875 51.689453125 c 5
 149.768554688 -23.517578125 54.0419921875 -9.2939453125 58.634765625 48.6201171875 c 5
194.993164062 618.897460938 m 5
 128.315429688 610.32421875 135.217773438 601.111328125 134.123046875 536.572265625 c 4
 133.198242188 482.100585938 135.74609375 401.982421875 137.245117188 364.790039062 c 5
 385.09375 309.168945312 528.932617188 626.999023438 194.993164062 618.897460938 c 5
EndSplineSet
Validated: 33
EndChar

StartChar: S
Encoding: 18 83 19
Width: 503
VWidth: 0
Flags: HW
LayerCount: 2
Fore
SplineSet
127.190429688 3.8115234375 m 1
 24.0849609375 -11.12109375 30.9794921875 102.099609375 113.499023438 98.5849609375 c 1
 168.368164062 92.2607421875 194.580078125 88.9482421875 233.64453125 92.1953125 c 0
 412.995117188 100.610351562 372.758789062 292.170898438 254.952148438 295.733398438 c 0
 17.564453125 302.912109375 -50.0673828125 664.313476562 249.875 700.676757812 c 1
 307.653320312 701.741210938 357.344726562 706.146484375 419.875976562 685.029296875 c 1
 467.833984375 673.471679688 467.15234375 583.049804688 398.34765625 595.8515625 c 0
 353.682617188 604.35546875 313.1640625 607.411132812 267.150390625 602.684570312 c 0
 91.3759765625 588.427734375 98.0400390625 401.995117188 260.369140625 399.9453125 c 0
 547.58984375 392.8984375 480.484375 -46.384765625 243.611328125 5.4970703125 c 1
 191.67578125 1.9599609375 157.740234375 4.4326171875 127.190429688 3.8115234375 c 1
EndSplineSet
Validated: 524321
EndChar

StartChar: T
Encoding: 19 84 20
Width: 588
VWidth: 0
Flags: HW
LayerCount: 2
Fore
SplineSet
252.541992188 32.08984375 m 5
 245.953125 226.66796875 252.084960938 473.94921875 252.948242188 612.192382812 c 5
 194.9609375 616.326171875 155.669921875 611.96484375 85.7919921875 617.244140625 c 5
 38.349609375 614.776367188 37.419921875 700.609375 86.9013671875 698.837890625 c 4
 203.9453125 691.430664062 407.078125 705.138671875 519.595703125 698.627929688 c 5
 548.587890625 687.1640625 542.455078125 621.015625 513.978515625 616.11328125 c 4
 460.716796875 608.05078125 385.456054688 618.943359375 330.872070312 609.989257812 c 5
 332.725585938 389.853515625 332.510742188 200.575195312 334.131835938 34.08203125 c 4
 333.751953125 -10.7353515625 250.018554688 -10.14453125 252.541992188 32.08984375 c 5
EndSplineSet
Validated: 524321
EndChar

StartChar: U
Encoding: 20 85 21
Width: 597
VWidth: 0
Flags: HW
LayerCount: 2
Fore
SplineSet
51.150390625 424.564453125 m 4
 50.8427734375 470.590820312 47.6357421875 519.641601562 53.4970703125 662.48828125 c 5
 59.5986328125 714.109375 148.551757812 703.970703125 146.484375 664.048828125 c 5
 149.842773438 564.650390625 150.0234375 491.15625 149.02734375 421.622070312 c 4
 143.505859375 112.540039062 207.885742188 88.6123046875 308.874023438 82.2763671875 c 5
 464.291015625 95.5771484375 447.635742188 215.749023438 449.122070312 439.6328125 c 5
 445.32421875 484.454101562 451.346679688 564.044921875 449.340820312 655.50390625 c 5
 454.543945312 725.8515625 551.264648438 705.995117188 543.00390625 654.95703125 c 5
 546.999023438 539.422851562 543.5078125 514.60546875 545.344726562 445.139648438 c 4
 555.334960938 180.73046875 547.424804688 7.794921875 310.448242188 1.0673828125 c 5
 32.6220703125 6.2763671875 56.9150390625 175.377929688 51.150390625 424.564453125 c 4
EndSplineSet
Validated: 524321
EndChar

StartChar: V
Encoding: 21 86 22
Width: 660
VWidth: 0
Flags: HW
LayerCount: 2
Fore
SplineSet
210.87109375 93.4296875 m 1
 143.702148438 291.48828125 124.298828125 377.513671875 53.361328125 637.443359375 c 1
 29.6767578125 709.573242188 138.791992188 722.28125 142.7734375 664.758789062 c 1
 195.021484375 466.747070312 251.430664062 275.572265625 300.956054688 118.297851562 c 1
 313.059570312 104.891601562 327.818359375 106.930664062 337.833984375 119.411132812 c 1
 404.8828125 289.336914062 479.64453125 546.901367188 517.08984375 673.698242188 c 1
 549.374023438 730.83984375 620.720703125 683.654296875 609.583984375 646.860351562 c 0
 552.631835938 443.568359375 503.670898438 294.458984375 431.375976562 88.1298828125 c 1
 355.711914062 -62.3291015625 243.239257812 10.3525390625 210.87109375 93.4296875 c 1
EndSplineSet
Validated: 524321
EndChar

StartChar: W
Encoding: 22 87 23
Width: 864
VWidth: 0
Flags: HW
LayerCount: 2
Fore
SplineSet
226.778320312 29.9248046875 m 5
 144.624023438 332.62890625 143.74609375 306.41796875 50.9296875 650.38671875 c 5
 42.05078125 696.995117188 99.3193359375 712.760742188 114.348632812 668.36328125 c 4
 163.71484375 529.104492188 210.474609375 342.374023438 255.336914062 181.015625 c 4
 261.67578125 161.0703125 264.48046875 171.876953125 267.395507812 180.576171875 c 4
 312.995117188 339.376953125 336.157226562 586.063476562 398.96484375 677.61328125 c 4
 409.517578125 696.547851562 431.537109375 705.434570312 449.27734375 676.573242188 c 5
 506.166992188 535.4609375 557.659179688 328.538085938 602.450195312 187.392578125 c 4
 607.666015625 172.497070312 611.916992188 171.5625 617.740234375 187.930664062 c 4
 676.377929688 424.78515625 676.319335938 440.47265625 744.333984375 666.930664062 c 4
 753.272460938 706.8203125 822.607421875 703.504882812 814.3125 653.47265625 c 4
 760.606445312 411.6953125 708.26171875 217.916015625 655.34765625 38.46875 c 4
 642.356445312 -14.208984375 585.6875 -9.517578125 578.411132812 39.7666015625 c 5
 511.239257812 214.2421875 474.372070312 379.625 431.69921875 535.834960938 c 4
 428.002929688 548.548828125 421.434570312 545.424804688 418.39453125 536.650390625 c 4
 379.3828125 325.396484375 371.098632812 237.369140625 299.208007812 32.01171875 c 5
 287.603515625 -14.3916015625 240.063476562 -2.787109375 226.778320312 29.9248046875 c 5
EndSplineSet
Validated: 524321
EndChar

StartChar: X
Encoding: 23 88 24
Width: 587
VWidth: 0
Flags: HW
LayerCount: 2
Fore
SplineSet
73.93359375 56.015625 m 5
 129.79296875 162.220703125 188.786132812 245.698242188 245.743164062 349.754882812 c 5
 183.943359375 453.673828125 109.041015625 544.336914062 54.0576171875 645.4140625 c 5
 33.1669921875 691.995117188 98.5341796875 723.876953125 122.87890625 679.560546875 c 5
 213.333007812 539.690429688 254.36328125 490.256835938 298.5234375 420.05859375 c 5
 330.029296875 468.995117188 399.670898438 616.176757812 443.578125 681.858398438 c 5
 465.908203125 722.7265625 527.674804688 682.706054688 511.778320312 649.06640625 c 4
 421.565429688 467.173828125 405.521484375 443.15625 356.047851562 354.638671875 c 5
 413.647460938 252.928710938 479.1640625 154.866210938 531.434570312 60.625 c 4
 558.904296875 12.2490234375 480.392578125 -14.095703125 463.881835938 13.853515625 c 4
 406.706054688 100.365234375 371.469726562 177.61328125 300.65625 278.166992188 c 5
 243.706054688 189.012695312 196.166992188 95.1455078125 140.466796875 16.3720703125 c 5
 122.3515625 -20.87109375 48.685546875 15.005859375 73.93359375 56.015625 c 5
EndSplineSet
Validated: 524321
EndChar

StartChar: Y
Encoding: 24 89 25
Width: 575
VWidth: 0
Flags: HW
LayerCount: 2
Fore
SplineSet
254.381835938 43.4267578125 m 5
 252.557617188 116.252929688 260.206054688 183.235351562 244.65625 216.294921875 c 4
 185.7421875 340.276367188 122.616210938 503.52734375 54.548828125 649.303710938 c 5
 31.02734375 688.0390625 105.416992188 723.755859375 125.001953125 679.935546875 c 5
 203.765625 544.9453125 232.90234375 416.571289062 304.6640625 304.333007812 c 5
 374.606445312 414.572265625 393.4609375 582.114257812 448.264648438 680.469726562 c 5
 455.645507812 705.712890625 529.109375 712.428710938 525.546875 657.323242188 c 5
 461.755859375 471.03515625 411.092773438 319.567382812 357.046875 216.704101562 c 5
 347.09375 182.080078125 351.263671875 86.5390625 352.423828125 44.0009765625 c 5
 337.549804688 -24.8173828125 258.674804688 -3.15234375 254.381835938 43.4267578125 c 5
EndSplineSet
Validated: 524321
EndChar

StartChar: Z
Encoding: 25 90 26
Width: 620
VWidth: 0
Flags: HW
LayerCount: 2
Fore
SplineSet
102.526367188 2.064453125 m 1
 40.0517578125 23.29296875 50.9521484375 84.5263671875 67.994140625 107.5546875 c 0
 212.477539062 315.2421875 325.923828125 463.340820312 433.838867188 602.541992188 c 0
 442.7421875 610.598632812 442.46875 614.340820312 430.024414062 615.96875 c 0
 303.807617188 609.756835938 260.790039062 603.872070312 104.240234375 604.208007812 c 0
 30.6572265625 602.452148438 34.49609375 696.540039062 100.299804688 701.143554688 c 1
 240.63671875 694.249023438 390.758789062 699.928710938 491.3203125 701.1875 c 1
 565.764648438 695.733398438 552.890625 632.075195312 538.76171875 614.013671875 c 1
 414.576171875 402.41015625 277.10546875 261.274414062 173.922851562 107.5078125 c 1
 171.752929688 98.423828125 173.263671875 93.1943359375 179.791992188 93.1943359375 c 0
 300.393554688 87.46484375 458.354492188 96.232421875 537.662109375 94.0947265625 c 1
 580.994140625 89.265625 584.559570312 7.2626953125 530.2265625 2.4091796875 c 1
 399.01171875 8.9189453125 244.428710938 -1.8330078125 102.526367188 2.064453125 c 1
EndSplineSet
Validated: 524321
EndChar

StartChar: a
Encoding: 26 97 27
Width: 443
VWidth: 0
Flags: HMW
HStem: 429.317 0.81
LayerCount: 2
Fore
SplineSet
353.154296875 -4.486328125 m 4
 350.99609375 6.328125 353.779296875 23.154296875 339.96875 23.8134765625 c 5
 220.122070312 -3.587890625 55.2431640625 -35.990234375 50 134.135742188 c 5
 58.74609375 282.875976562 214.766601562 261.666015625 308.135742188 267.8125 c 5
 354.922851562 268.931640625 345.314453125 320.765625 304.807617188 338.41015625 c 5
 262.900390625 368.090820312 254.088867188 368.271484375 208.620117188 364.083984375 c 5
 156.833007812 362.119140625 142.6796875 298.620117188 109.5234375 321.586914062 c 5
 89.3798828125 338.823242188 97.57421875 375.858398438 131.845703125 394.958007812 c 5
 197.955078125 443.228515625 291.404296875 432.580078125 335.75390625 404.668945312 c 5
 365.5546875 397.115234375 382.764648438 378.953125 391.240234375 329.310546875 c 5
 392.549804688 180.874023438 395.211914062 128.077148438 391.614257812 -2.8251953125 c 5
 395.236328125 -22.162109375 358.153320312 -34.923828125 353.154296875 -4.486328125 c 4
330.891601562 86.0595703125 m 5
 343.745117188 115.077148438 340.672851562 166.627929688 336.229492188 173.432617188 c 5
 330.051757812 195.610351562 327.659179688 208.483398438 305.892578125 205.060546875 c 4
 248.057617188 194.286132812 115.76171875 214.983398438 110.180664062 130.815429688 c 5
 111.625976562 21.40234375 254.685546875 58.9599609375 330.891601562 86.0595703125 c 5
EndSplineSet
Validated: 524321
EndChar

StartChar: b
Encoding: 27 98 28
Width: 519
VWidth: 0
Flags: HMW
HStem: 429 1
LayerCount: 2
Fore
SplineSet
51.3388671875 -1.802734375 m 5
 52.1455078125 217.33984375 52.3115234375 446.350585938 50 640.961914062 c 5
 64.71875 692.6484375 138.275390625 667.479492188 134.495117188 639.963867188 c 5
 138.830078125 544.169921875 127.014648438 498.6640625 131.610351562 426.555664062 c 5
 285.159179688 430.139648438 452.689453125 434.296875 469.602539062 205.005859375 c 5
 462.890625 29.0517578125 280.385742188 -35.134765625 128.55859375 20.580078125 c 5
 127.490234375 6.6845703125 127.583984375 5.623046875 127.72265625 -1.505859375 c 4
 132.305664062 -31.9912109375 56.978515625 -42.091796875 51.3388671875 -1.802734375 c 5
390.74609375 206.502929688 m 5
 392.321289062 366.44140625 232.876953125 357.735351562 134.366210938 334.951171875 c 5
 121.845703125 272.408203125 131.270507812 172.856445312 127.9453125 102.561523438 c 5
 244.326171875 36.6796875 397.57421875 104.114257812 390.74609375 206.502929688 c 5
EndSplineSet
Validated: 524321
EndChar

StartChar: c
Encoding: 28 99 29
Width: 397
VWidth: 0
Flags: HMW
HStem: 429 1
LayerCount: 2
Fore
SplineSet
50.0029296875 203.915039062 m 4
 49.2216796875 361.663085938 197.5625 430.348632812 316.25390625 428.763671875 c 5
 367.311523438 417.78125 347.259765625 374.04296875 317.119140625 374.81640625 c 4
 203.80859375 382.434570312 106.375976562 303.447265625 108.124023438 200.513671875 c 5
 112.892578125 68.8076171875 180.08984375 64.69921875 310.169921875 59.4287109375 c 4
 364.642578125 56.416015625 353.611328125 3.666015625 313.80078125 1.60546875 c 4
 89.462890625 -3.2919921875 50.9326171875 89.9296875 50.0029296875 203.915039062 c 4
EndSplineSet
Validated: 524321
EndChar

StartChar: d
Encoding: 29 100 30
Width: 535
VWidth: 0
Flags: HMW
HStem: 429 1
LayerCount: 2
Fore
SplineSet
406.020507812 3.123046875 m 4
 406.953125 20.44921875 404.706054688 24.298828125 406.529296875 39.5634765625 c 5
 312.47265625 -7.2724609375 75.0537109375 -61.6630859375 50 210.110351562 c 5
 49.91015625 475.325195312 348.8515625 446.510742188 399.56640625 398.016601562 c 5
 402.381835938 429.640625 396.234375 556.415039062 399.84765625 602.907226562 c 4
 401.295898438 652.66015625 483.540039062 655.723632812 485.828125 605.76953125 c 4
 484.55078125 468.97265625 484.8046875 269.4765625 481.21875 103.6875 c 4
 481.861328125 71.1640625 482.53515625 31.4453125 480.702148438 3.6689453125 c 4
 481.321289062 -30.337890625 407.469726562 -31.3525390625 406.020507812 3.123046875 c 4
417.875976562 135.259765625 m 5
 421.249023438 221.216796875 417.243164062 195.276367188 408.643554688 307.54296875 c 5
 315.721679688 408.612304688 108.202148438 347.688476562 120.162109375 210.962890625 c 5
 109.374023438 71.7099609375 307.806640625 19.9912109375 417.875976562 135.259765625 c 5
EndSplineSet
Validated: 524321
EndChar

StartChar: e
Encoding: 30 101 31
Width: 445
VWidth: 0
Flags: HMW
HStem: 429 1
LayerCount: 2
Fore
SplineSet
50.16015625 228.333007812 m 5
 58.2119140625 296.943359375 77.8251953125 418.301757812 237.53125 428.865234375 c 5
 363.498046875 420.953125 387.658203125 356.182617188 394.826171875 265.09765625 c 4
 398.09375 220.283203125 364.793945312 222.541015625 354.543945312 221.481445312 c 4
 283.153320312 217.799804688 167.506835938 216.516601562 119.357421875 219.27734375 c 4
 113.037109375 219.045898438 96.46484375 225.9453125 97.3291015625 213.419921875 c 4
 108.584960938 50.41796875 236.001953125 23.2158203125 357.19140625 68.3916015625 c 5
 401.450195312 76.8681640625 405.196289062 29.4697265625 376.46484375 19.380859375 c 4
 111.352539062 -57.1025390625 46.2939453125 115.131835938 50.16015625 228.333007812 c 5
333.119140625 272.610351562 m 4
 340.021484375 274.44921875 347.400390625 274.435546875 347.217773438 284.271484375 c 4
 353.098632812 351.745117188 295.31640625 382.693359375 241.466796875 383.576171875 c 5
 190.987304688 381.44140625 137.340820312 375.307617188 107.6484375 283.857421875 c 4
 106.034179688 278.884765625 109.098632812 271.532226562 119.163085938 270.502929688 c 4
 172.174804688 270.309570312 245.391601562 258.209960938 333.119140625 272.610351562 c 4
EndSplineSet
Validated: 524321
EndChar

StartChar: f
Encoding: 31 102 32
Width: 403
VWidth: 0
Flags: HMWO
HStem: 429 1
LayerCount: 2
Fore
SplineSet
116.956054688 38.9951171875 m 5
 117.690429688 170.036132812 116.690429688 238.229492188 118.618164062 360.103515625 c 4
 118.294921875 370.153320312 121.198242188 376.374023438 108.513671875 376.041015625 c 4
 89.1923828125 375.212890625 104.954101562 373.71484375 72.7978515625 374.65625 c 4
 38.3916015625 375.703125 47.041015625 427.720703125 71.609375 428.965820312 c 4
 95.533203125 427.517578125 95.6142578125 429.720703125 111.190429688 427.62890625 c 4
 118.369140625 426.576171875 116.315429688 434.780273438 119.353515625 444.462890625 c 4
 127.7109375 551.587890625 167.177734375 630.7734375 329.25390625 620.017578125 c 4
 359.512695312 616.540039062 362.306640625 558.176757812 331.75 552.24609375 c 5
 247.201171875 551.251953125 197.444335938 555.779296875 189.353515625 438.411132812 c 4
 190.041015625 426.76171875 191.279296875 425.975585938 209.4296875 425.666992188 c 4
 240.038085938 425.07421875 289.541992188 427.848632812 316.994140625 428.112304688 c 4
 350.185546875 426.505859375 349.462890625 379.6015625 318.278320312 375.770507812 c 5
 278.073242188 374.727539062 240.081054688 370.072265625 199.125976562 375.514648438 c 4
 183.53515625 377.799804688 188.182617188 370.420898438 187.669921875 361.98046875 c 4
 188.125 338.98046875 187.830078125 305.337890625 187.96875 279.442382812 c 4
 188.689453125 179.329101562 186.703125 106.486328125 187.022460938 37.654296875 c 5
 196.986328125 -10.8818359375 111.759765625 -12.2314453125 116.956054688 38.9951171875 c 5
EndSplineSet
EndChar
